<svg width="24" height="24" viewBox="0 0 24 24" fill="none" xmlns="http://www.w3.org/2000/svg">
<path fill-rule="evenodd" clip-rule="evenodd" d="M5.25 8C5.25 6.48122 6.48122 5.25 8 5.25H16C17.5188 5.25 18.75 6.48122 18.75 8V16C18.75 17.5188 17.5188 18.75 16 18.75H8C6.48122 18.75 5.25 17.5188 5.25 16V8ZM12.75 17.25H16C16.6904 17.25 17.25 16.6904 17.25 16V8C17.25 7.30964 16.6904 6.75 16 6.75H12.75V17.25ZM11.25 6.75V17.25H8C7.30964 17.25 6.75 16.6904 6.75 16V8C6.75 7.30964 7.30964 6.75 8 6.75H11.25Z" fill="white" fill-opacity="0.4"/>
</svg>
