<svg width="24" height="24" viewBox="0 0 24 24" fill="none" xmlns="http://www.w3.org/2000/svg">
<path d="M6 8.5C5.72386 8.5 5.5 8.72386 5.5 9C5.5 9.27614 5.72386 9.5 6 9.5H8C8.27614 9.5 8.5 9.27614 8.5 9C8.5 8.72386 8.27614 8.5 8 8.5H6Z" fill="white" fill-opacity="0.4"/>
<path d="M5.5 11C5.5 10.7239 5.72386 10.5 6 10.5H8C8.27614 10.5 8.5 10.7239 8.5 11C8.5 11.2761 8.27614 11.5 8 11.5H6C5.72386 11.5 5.5 11.2761 5.5 11Z" fill="white" fill-opacity="0.4"/>
<path d="M6 12.5C5.72386 12.5 5.5 12.7239 5.5 13C5.5 13.2761 5.72386 13.5 6 13.5H8C8.27614 13.5 8.5 13.2761 8.5 13C8.5 12.7239 8.27614 12.5 8 12.5H6Z" fill="white" fill-opacity="0.4"/>
<path fill-rule="evenodd" clip-rule="evenodd" d="M5 5C3.89543 5 3 5.89543 3 7V17C3 18.1046 3.89543 19 5 19H19C20.1046 19 21 18.1046 21 17V7C21 5.89543 20.1046 5 19 5H5ZM19 6.5H10.75V17.5H19C19.2761 17.5 19.5 17.2761 19.5 17V7C19.5 6.72386 19.2761 6.5 19 6.5ZM5 6.5H9.25V17.5H5C4.72386 17.5 4.5 17.2761 4.5 17V7C4.5 6.72386 4.72386 6.5 5 6.5Z" fill="white" fill-opacity="0.4"/>
</svg>
