<svg width="24" height="24" viewBox="0 0 24 24" fill="none" xmlns="http://www.w3.org/2000/svg">
<path fill-rule="evenodd" clip-rule="evenodd" d="M11.6668 4.75C11.3126 4.75 10.9901 4.9541 10.8384 5.27422L7.81203 11.6633C8.27828 12.0127 8.81399 12.3295 9.41261 12.5667L10.5371 10.1927C10.9887 9.23948 12.345 9.23947 12.7965 10.1927L16.8382 18.7253C17.055 19.1828 17.6015 19.378 18.059 19.1613C18.5165 18.9445 18.7117 18.398 18.495 17.9405L12.4952 5.27422C12.3436 4.9541 12.021 4.75 11.6668 4.75ZM6.54087 10.8429L9.48283 4.63209C9.88262 3.7881 10.7329 3.25 11.6668 3.25C12.6007 3.25 13.451 3.7881 13.8508 4.63209L16.6233 10.4851C17.3521 9.54143 17.8091 8.55104 17.974 7.80891C18.2635 6.50604 19.5544 5.68455 20.8573 5.97408C22.1601 6.26361 22.9816 7.55451 22.6921 8.85739C22.2456 10.8668 20.9838 13.1079 19.1844 14.8574C19.0739 14.9648 18.9608 15.0709 18.8451 15.1755L19.8506 17.2984C20.422 18.5045 19.9073 19.9455 18.7011 20.5169C17.495 21.0882 16.054 20.5736 15.4826 19.3674L14.6559 17.6221C13.7265 17.9147 12.7268 18.0829 11.6666 18.0829C10.5808 18.0829 9.5756 17.932 8.65279 17.6747L7.851 19.3674C7.27965 20.5736 5.83867 21.0882 4.63249 20.5169C3.42631 19.9455 2.91168 18.5045 3.48303 17.2984L4.37179 15.4221C3.00142 14.3013 2.06082 13.0599 1.5687 12.1987C0.906521 11.0399 1.30912 9.5637 2.46793 8.90152C3.62674 8.23935 5.10294 8.64194 5.76511 9.80075C5.93188 10.0926 6.1929 10.4589 6.54087 10.8429ZM10.7786 13.187C11.0646 13.2277 11.3608 13.2496 11.6666 13.2496C11.9662 13.2496 12.2602 13.223 12.548 13.172L11.6668 11.3118L10.7786 13.187ZM11.4409 10.8348C11.4408 10.8346 11.441 10.8349 11.4409 10.8348V10.8348ZM12.9578 14.621C12.5394 14.705 12.1083 14.7496 11.6666 14.7496C7.79234 14.7496 5.26517 11.9492 4.46275 10.545C4.21159 10.1054 3.65167 9.95272 3.21214 10.2039C2.77261 10.455 2.6199 11.015 2.87106 11.4545C3.8486 13.1652 6.87776 16.5829 11.6666 16.5829C12.3998 16.5829 13.0991 16.4882 13.7617 16.3181L12.9578 14.621ZM5.50105 16.5421L4.83863 17.9405C4.62192 18.398 4.81712 18.9445 5.27462 19.1613C5.73212 19.378 6.27868 19.1828 6.49539 18.7253L7.12431 17.3975C6.54251 17.1463 6.00124 16.8562 5.50105 16.5421ZM18.3579 13.563C19.8519 12.031 20.8689 10.1473 21.2278 8.53199C21.3376 8.03781 21.0261 7.54818 20.5319 7.43836C20.0377 7.32855 19.5481 7.64013 19.4382 8.13431C19.1954 9.22721 18.5268 10.5758 17.5099 11.7728L18.3579 13.563Z" fill="#FFFFFF" fill-opacity="0.4"/>
</svg>
